# xmcd
#
# Track frame offsets: 
#        150
#        16367
#        30960
#        48449
#        64899
#        83034
#        97485
#        113112
#        128273
#        144429
#        162481
#
# Disc length: 2340 seconds
#
# Revision: 1
# Processed by: cddbd v1.5.2PL0 Copyright (c) Steve Scherf et al.
# Submitted via: ExactAudioCopyFreeDBPlugin 1.0
#
DISCID=8b09220b
DTITLE=Jamelia - Superstar (The Hits)
DYEAR=2007
DGENRE=R&B
TTITLE0=Superstar
TTITLE1=Thank You
TTITLE2=See It In A Boy's Eyes
TTITLE3=Stop
TTITLE4=Money Feat. Beenie Man
TTITLE5=Beware Of The Dog
TTITLE6=DJ
TTITLE7=Something About You
TTITLE8=Call Me
TTITLE9=Bout Feat. Rah Digga
TTITLE10=No More
EXTD=
EXTT0=
EXTT1=
EXTT2=
EXTT3=
EXTT4=
EXTT5=
EXTT6=
EXTT7=
EXTT8=
EXTT9=
EXTT10=
PLAYORDER=
